<?xml version="1.0" encoding="iso-8859-1"?>
<!-- Generator: Adobe Illustrator 19.0.0, SVG Export Plug-In . SVG Version: 6.00 Build 0)  -->
<svg version="1.1" id="Capa_1" xmlns="http://www.w3.org/2000/svg" xmlns:xlink="http://www.w3.org/1999/xlink" x="0px" y="0px"
	 viewBox="0 0 511.999 511.999" style="enable-background:new 0 0 511.999 511.999;" xml:space="preserve">
<g>
	<g>
		<path d="M504.278,370.442c4.264,0,7.721-3.456,7.721-7.721V24.767C511.999,11.111,500.888,0,487.232,0H24.766
			C11.11,0,0,11.111,0,24.767v462.465c0,13.656,11.11,24.767,24.767,24.767h462.465c13.656,0.001,24.767-11.11,24.767-24.766V398.5
			c0-4.265-3.457-7.721-7.721-7.721c-4.264,0-7.721,3.456-7.721,7.721v88.733c0,5.142-4.183,9.325-9.325,9.325H24.766
			c-5.142,0-9.325-4.183-9.325-9.325V24.767c0-5.142,4.183-9.325,9.325-9.325h462.465c5.142,0,9.325,4.183,9.325,9.325v337.954
			C496.557,366.986,500.013,370.442,504.278,370.442z"/>
	</g>
</g>
<g>
	<g>
		<path d="M468.718,330.937H346.075V181.062h122.643c4.264,0,7.72-3.456,7.72-7.72c0-4.265-3.457-7.721-7.721-7.721H346.075V47.087
			c0-4.265-3.457-7.721-7.721-7.721c-4.264,0-7.721,3.456-7.721,7.721v118.534H180.758V47.087c0-4.265-3.457-7.721-7.721-7.721
			s-7.721,3.456-7.721,7.721v118.534H43.281c-4.264,0-7.721,3.456-7.721,7.721s3.457,7.721,7.721,7.721h122.035v149.875H43.281
			c-4.264,0-7.721,3.456-7.721,7.721s3.457,7.721,7.721,7.721h122.035v118.534c0,4.265,3.457,7.721,7.721,7.721
			c4.264,0,7.721-3.456,7.721-7.721V346.379h16.697c4.264,0,7.721-3.456,7.721-7.721s-3.457-7.721-7.721-7.721h-16.697V181.062
			h149.875v149.875H230.397c-4.264,0-7.721,3.456-7.721,7.721s3.457,7.721,7.721,7.721h100.236v118.534
			c0,4.265,3.457,7.721,7.721,7.721c4.264,0,7.721-3.456,7.721-7.721V346.379h122.643c4.264,0,7.721-3.456,7.721-7.721
			S472.982,330.937,468.718,330.937z"/>
	</g>
</g>
<g>
	<g>
		<path d="M136.622,80.125c-2.016-3.757-6.696-5.168-10.454-3.153c-3.757,2.016-5.169,6.697-3.153,10.453
			c2.181,4.064,2.366,5.943,2.366,10.593c0,15.564-12.662,28.225-28.225,28.225s-28.225-12.661-28.225-28.225
			c0-15.564,12.663-28.225,28.226-28.225c2.934,0,2.771,0.206,4.526,0.544c4.524,0.871,8.407-0.948,9.701-5.011
			c1.295-4.063-0.886-8.701-5.011-9.701c-4.367-1.059-4.689-1.274-9.217-1.274c-24.078,0-43.667,19.589-43.667,43.668
			c0,24.078,19.589,43.667,43.667,43.667s43.667-19.589,43.667-43.667C140.823,90.829,140.003,86.424,136.622,80.125z"/>
	</g>
</g>
<g>
	<g>
		<path d="M255.999,211.16c-24.078,0-43.667,19.589-43.667,43.667c0,24.08,19.589,43.668,43.667,43.668s43.667-19.589,43.667-43.668
			C299.666,230.749,280.077,211.16,255.999,211.16z M255.999,283.054c-15.563,0-28.225-12.662-28.225-28.226
			s12.661-28.225,28.225-28.225c15.564,0,28.225,12.661,28.225,28.225C284.224,270.392,271.562,283.054,255.999,283.054z"/>
	</g>
</g>
<g>
	<g>
		<path d="M408.352,364.523c-24.079,0.001-43.667,19.59-43.667,43.667c0,24.079,19.589,43.668,43.667,43.668
			s43.667-19.589,43.667-43.668C452.019,384.112,432.43,364.523,408.352,364.523z M408.352,436.416
			c-15.564,0-28.225-12.662-28.225-28.226s12.662-28.225,28.225-28.225c15.563,0.001,28.225,12.662,28.225,28.225
			C436.577,423.754,423.915,436.416,408.352,436.416z"/>
	</g>
</g>
<g>
	<g>
		<path d="M419.097,255.261l24.219-25.021c2.966-3.063,2.886-7.951-0.178-10.917c-3.064-2.967-7.952-2.887-10.918,0.178
			l-23.869,24.659l-23.869-24.659c-2.966-3.065-7.853-3.145-10.918-0.178c-3.064,2.966-3.144,7.854-0.178,10.917l24.219,25.021
			l-24.219,25.021c-2.966,3.063-2.886,7.951,0.178,10.917c1.499,1.452,3.435,2.174,5.369,2.174c2.018,0,4.034-0.786,5.549-2.351
			l23.869-24.659l23.869,24.659c1.515,1.565,3.531,2.351,5.549,2.351c1.934,0,3.87-0.722,5.369-2.174
			c3.064-2.966,3.144-7.854,0.178-10.917L419.097,255.261z"/>
	</g>
</g>
<g>
	<g>
		<path d="M138.652,433.212l-24.219-25.021l24.219-25.021c2.965-3.064,2.885-7.952-0.178-10.917
			c-3.065-2.967-7.953-2.887-10.918,0.178l-23.869,24.659l-23.869-24.659c-2.966-3.065-7.854-3.145-10.918-0.178
			c-3.064,2.966-3.144,7.854-0.178,10.917l24.219,25.021l-24.219,25.021c-2.966,3.063-2.886,7.951,0.178,10.917
			c1.499,1.452,3.435,2.174,5.369,2.174c2.018,0,4.034-0.786,5.549-2.351l23.869-24.659l23.869,24.659
			c1.515,1.565,3.531,2.351,5.549,2.351c1.934,0,3.87-0.722,5.369-2.174C141.538,441.163,141.618,436.275,138.652,433.212z"/>
	</g>
</g>
<g>
</g>
<g>
</g>
<g>
</g>
<g>
</g>
<g>
</g>
<g>
</g>
<g>
</g>
<g>
</g>
<g>
</g>
<g>
</g>
<g>
</g>
<g>
</g>
<g>
</g>
<g>
</g>
<g>
</g>
</svg>
