<svg id="Layer_5" enable-background="new 0 0 64 64" height="512" viewBox="0 0 64 64" width="512" xmlns="http://www.w3.org/2000/svg"><g><path d="m40.84 39.973h2v2.376h-2z" transform="matrix(.707 -.707 .707 .707 -16.85 41.667)"/><path d="m45.047 42.951-1.412 1.416c1.701 1.698 3.961 2.633 6.363 2.633 4.963 0 9.001-4.037 9.002-9h-2c-.001 3.86-3.142 7-7.002 7-1.868 0-3.627-.728-4.951-2.049z"/><path d="m63 37.998c0-3.471-1.352-6.735-3.805-9.189l-23.972-23.996c-2.456-2.459-5.722-3.813-9.198-3.813h-.023c-7.169 0-13.002 5.833-13.002 13.025 0 3.476 1.354 6.743 3.813 9.199l15.791 15.776h-19.604c-6.617 0-12 5.383-12 12s5.383 12 12 12h34c6.617 0 12-5.383 12-12 0-1.083-.16-2.165-.458-3.226 2.725-2.385 4.458-5.879 4.458-9.776zm-2 0c0 6.066-4.936 11.002-11.002 11.002-2.937 0-5.698-1.143-7.776-3.219l-11.3-11.289 15.57-15.571 11.289 11.3c2.075 2.078 3.219 4.839 3.219 7.777zm-46-23.996c0-6.066 4.936-11.002 11.002-11.002h.023c2.94 0 5.704 1.146 7.783 3.226l11.27 11.281-15.571 15.572-11.281-11.27c-2.08-2.079-3.226-4.843-3.226-7.807zm-12 36.998c0-5.514 4.486-10 10-10h16v20h-16c-5.514 0-10-4.486-10-10zm54 0c0 5.514-4.486 10-10 10h-16v-20h3.606l6.202 6.196c2.456 2.453 5.72 3.804 9.19 3.804 2.494 0 4.817-.718 6.798-1.94.13.643.204 1.291.204 1.94z"/><path d="m30.979 9.053.653.654 1.414-1.414-.653-.654c-1.701-1.701-3.971-2.639-6.391-2.639-3.195 0-6.18 1.724-7.788 4.499l1.73 1.003c1.252-2.16 3.574-3.502 6.058-3.502 1.886 0 3.653.729 4.977 2.053z"/><path d="m5 51h2c0-3.309 2.691-6 6-6h2v-2h-2c-4.411 0-8 3.589-8 8z"/><path d="m17 43h2v2h-2z"/><path d="m37 57h2v2h-2z"/><path d="m33 57h2v2h-2z"/><path d="m41 57h2v2h-2z"/></g></svg>
