<svg id="toes" enable-background="new 0 0 300 300" height="512" viewBox="0 0 300 300" width="512" xmlns="http://www.w3.org/2000/svg"><g><circle cx="219.535" cy="106" r="4"/><path d="m251.929 60.766c-1.973-6.512-8.877-10.195-15.387-8.23-3.154.957-5.746 3.082-7.301 5.988s-1.883 6.246-.928 9.398c.955 3.156 3.082 5.75 5.988 7.305 1.816.969 3.799 1.461 5.803 1.461 1.203 0 2.412-.176 3.596-.535 3.154-.957 5.746-3.082 7.301-5.988s1.883-6.247.928-9.399zm-10.549 7.73c-1.107.332-2.281.219-3.305-.324-1.021-.547-1.77-1.461-2.105-2.57s-.221-2.281.326-3.305 1.459-1.77 2.566-2.105c.418-.125.84-.188 1.256-.188 1.861 0 3.586 1.211 4.154 3.082.694 2.289-.603 4.715-2.892 5.41z"/><path d="m179.535 46c2.209 0 4-1.789 4-4v-8c0-2.211-1.791-4-4-4s-4 1.789-4 4v8c0 2.211 1.791 4 4 4z"/><path d="m179.535 54c-2.209 0-4 1.789-4 4v8c0 2.211 1.791 4 4 4s4-1.789 4-4v-8c0-2.211-1.791-4-4-4z"/><path d="m163.535 54h8c2.209 0 4-1.789 4-4s-1.791-4-4-4h-8c-2.209 0-4 1.789-4 4s1.791 4 4 4z"/><path d="m187.535 54h8c2.209 0 4-1.789 4-4s-1.791-4-4-4h-8c-2.209 0-4 1.789-4 4s1.791 4 4 4z"/><path d="m232.041 140.858c-2.771-6.379-9.12-10.858-16.506-10.858-4.427 0-8.432 1.667-11.57 4.327-.036.007-.071-.007-.107.001-1.907.407-3.658 1.194-5.225 2.242-1.539-6.206-5.029-11.799-10.125-15.929-.075-.061-.169-.074-.247-.129-3.876-6.293-10.809-10.512-18.726-10.512-4.784 0-9.203 1.552-12.817 4.156-.138 0-.265-.053-.406-.038-3.646.409-6.939 1.847-9.633 3.99-1.603-8.153-5.441-15.729-11.215-21.904-.037-.04-.089-.053-.127-.091-1.953-19.134-18.161-34.113-37.802-34.113-14.787 0-27.596 8.509-33.874 20.87-9.501 2.713-16.126 11.464-16.126 21.373v94.527c0 10.648 2.127 21.016 6.324 30.805 3.766 8.793 5.676 18.094 5.676 27.656v8.769c0 2.211 1.791 4 4 4s4-1.789 4-4v-8.77c0-10.648-2.127-21.016-6.324-30.805-3.766-8.793-5.676-18.094-5.676-27.656v-94.527c0-4.044 1.727-7.782 4.548-10.417-.331 2.014-.548 4.067-.548 6.174v26.656c0 6.254 5.088 11.344 11.342 11.344h53.316c6.254 0 11.342-5.09 11.342-11.344v-16.56c2.611 5.12 4 10.82 4 16.696v63.209c0 2.211 1.791 4 4 4s4-1.789 4-4v-52.93c0 4.926 4.006 8.93 8.93 8.93h26.141c4.027 0 7.4-2.695 8.51-6.365.26 1.35.42 2.727.42 4.131v54.234c0 2.211 1.791 4 4 4s4-1.789 4-4v-40.613c.597.354 1.255.613 2 .613h28c.698 0 1.321-.226 1.892-.54.025.387.108.761.108 1.153v43.387c0 2.211 1.791 4 4 4s4-1.789 4-4v-43.387c0-6.566-2.473-12.742-6.965-17.391-.156-.16-.357-.235-.53-.364zm-104.506-14.202c0 1.844-1.5 3.344-3.342 3.344h-53.317c-1.842 0-3.342-1.5-3.342-3.344v-26.656c0-16.543 13.457-30 30-30s30 13.457 30 30v26.656zm56 10.414c0 .512-.418.93-.93.93h-26.141c-.512 0-.93-.418-.93-.93v-5.07c0-7.719 6.281-14 14-14s14 6.281 14 14v5.07zm42 12.93h-20v-2c0-5.516 4.486-10 10-10s10 4.484 10 10z"/><path d="m115.535 158h-36c-2.209 0-4 1.789-4 4s1.791 4 4 4h36c2.209 0 4-1.789 4-4s-1.791-4-4-4z"/><path d="m111.535 154c2.209 0 4-1.789 4-4s-1.791-4-4-4h-28c-2.209 0-4 1.789-4 4s1.791 4 4 4z"/><path d="m175.535 158h-12c-2.209 0-4 1.789-4 4s1.791 4 4 4h12c2.209 0 4-1.789 4-4s-1.791-4-4-4z"/><path d="m219.535 166h-8c-2.209 0-4 1.789-4 4s1.791 4 4 4h8c2.209 0 4-1.789 4-4s-1.791-4-4-4z"/></g></svg>